<svg width="148" height="148" viewBox="0 0 148 148" fill="none" xmlns="http://www.w3.org/2000/svg">
<circle cx="74" cy="74" r="74" fill="#F2F1FF"/>
<mask id="mask0_1381_23005" style="mask-type:alpha" maskUnits="userSpaceOnUse" x="0" y="0" width="148" height="148">
<circle cx="74" cy="74" r="74" fill="#EFF0F7"/>
</mask>
<g mask="url(#mask0_1381_23005)">
<path opacity="0.3" fill-rule="evenodd" clip-rule="evenodd" d="M72.7712 34.0177C73.1211 33.711 73.5595 33.553 74.0016 33.5474V33.5554L74.0181 33.5909C74.4543 33.6005 74.8857 33.7583 75.231 34.061L101.606 56.9366C101.8 57.1078 101.956 57.3054 102.061 57.5293L102.06 57.5297C102.199 57.84 102.261 58.1804 102.21 58.5264L94.8613 108.176C94.7692 108.814 94.344 109.358 93.74 109.611L82.2523 114.151C81.7859 114.348 81.284 114.45 80.7764 114.45L80.7376 114.451H74.0005V114.452H67.2294C66.7195 114.452 66.2153 114.351 65.7469 114.153L54.2592 109.613C53.6552 109.359 53.2301 108.816 53.1379 108.178L45.7892 58.5284C45.7403 58.1841 45.8005 57.8417 45.9397 57.5312L60.8308 61.785H74.0005V61.7852H74.0006V61.7849V61.7848H60.9497L60.8319 61.785L60.8313 61.7848H60.8307L60.8308 61.7846L45.9408 57.5312C46.0462 57.3054 46.2023 57.0665 46.3961 56.8953L72.7712 34.0177Z" fill="#4A3AFF"/>
<g opacity="0.8">
<path opacity="0.4" d="M60.8308 61.7846L45.9397 57.5308C45.8005 57.8412 45.7403 58.1836 45.7892 58.5279L53.1379 108.177C53.2301 108.815 53.6552 109.359 54.2592 109.613L65.7469 114.153C66.2153 114.35 66.7195 114.452 67.2294 114.452H74.0005V61.7846H60.8308Z" fill="#4A3AFF"/>
<path opacity="0.4" d="M87.1703 61.785H74.0006V114.45H80.7698C81.2797 114.45 81.7839 114.349 82.2523 114.151L93.74 109.612C94.344 109.358 94.7692 108.814 94.8613 108.176L102.21 58.5264C102.261 58.1803 102.199 57.8397 102.059 57.5293L87.1703 61.785Z" fill="#4A3AFF"/>
<path d="M60.8313 61.7847L66.6184 114.39C66.8216 114.424 67.0248 114.45 67.2318 114.45H80.7382C80.9752 114.45 81.2104 114.424 81.4418 114.38L87.1706 61.7847H60.8313Z" fill="#4A3AFF"/>
<path opacity="0.8" d="M60.8313 61.7847L74.001 33.5527L87.1706 61.7847H60.8313Z" fill="#4A3AFF"/>
</g>
</g>
</svg>
