<svg width="149" height="149" viewBox="0 0 149 149" fill="none" xmlns="http://www.w3.org/2000/svg">
<circle cx="74" cy="74" r="74" fill="#F2F1FF"/>
<mask id="mask0_1381_23007" style="mask-type:alpha" maskUnits="userSpaceOnUse" x="0" y="0" width="148" height="148">
<circle cx="74" cy="74" r="74" fill="#EFF0F7"/>
</mask>
<g mask="url(#mask0_1381_23007)">
<path opacity="0.61" fill-rule="evenodd" clip-rule="evenodd" d="M89.3495 40.5215C91.1802 40.5215 92.9423 41.2074 94.2864 42.4404L112.473 59.1356C113.594 60.1654 114.1 61.608 113.984 63.0176C113.911 63.9803 113.545 64.9276 112.866 65.7186L79.1227 105.116C76.4346 108.254 71.5615 108.254 68.8734 105.116L35.1302 65.7186C34.3919 64.8567 34.0229 63.808 34.0019 62.7555C33.9648 61.4301 34.4754 60.1018 35.5274 59.1356L53.7136 42.4404C55.0577 41.2074 56.8214 40.5215 58.6505 40.5215H89.3495ZM34.0232 63.0929C34.0328 63.1937 34.0458 63.2944 34.0622 63.3947L58.4852 66.6511H89.5141L89.5145 66.6511H58.4855L34.0625 63.3947C34.0462 63.2944 34.0331 63.1937 34.0232 63.0929Z" fill="#4A3AFF"/>
<path opacity="0.31" d="M94.2864 42.4404C92.9423 41.2074 91.1802 40.5215 89.3495 40.5215H58.6505C56.8214 40.5215 55.0577 41.2074 53.7136 42.4404L35.5274 59.1356C34.3058 60.2575 33.8143 61.8677 34.0625 63.3947L58.4855 66.6511H89.5145L113.937 63.3947C114.186 61.8694 113.694 60.2575 112.473 59.1356L94.2864 42.4404Z" fill="white"/>
<path opacity="0.3" d="M89.3495 40.5215H58.6505C57.4795 40.5215 56.3478 40.8301 55.3239 41.356L58.4855 66.6511H89.5145L92.6761 41.356C91.6522 40.8301 90.5221 40.5215 89.3495 40.5215Z" fill="white"/>
<path fill-rule="evenodd" clip-rule="evenodd" d="M73.999 40.5215L58.4845 66.6511H89.5134L73.999 40.5215ZM73.9985 107.479L89.513 66.6511H58.4841L73.9985 107.479Z" fill="#4A3AFF"/>
<path d="M89.5137 66.6511H58.4847L73.9992 40.5215L89.5137 66.6511Z" fill="white" fill-opacity="0.34"/>
</g>
</svg>
