<svg width="148" height="148" viewBox="0 0 148 148" fill="none" xmlns="http://www.w3.org/2000/svg">
<circle cx="74" cy="74" r="74" fill="#F2F1FF"/>
<mask id="mask0_1381_23006" style="mask-type:alpha" maskUnits="userSpaceOnUse" x="0" y="0" width="148" height="148">
<circle cx="74" cy="74" r="74" fill="#EFF0F7"/>
</mask>
<g mask="url(#mask0_1381_23006)">
<path opacity="0.31" d="M52.2958 39.0213C52.0531 39.2271 52.0106 39.5855 52.1986 39.8424L63.8489 55.762C63.9632 55.9182 64.1451 56.0105 64.3386 56.0105H86.0339C86.2421 56.0105 86.4358 55.9037 86.5469 55.7276L95.9115 40.8958C96.0353 40.6997 96.0365 40.4502 95.9146 40.2529C94.9622 38.7115 93.2877 37.7507 91.4577 37.7507H55.6698C54.3961 37.7507 53.2201 38.2374 52.2958 39.0213Z" fill="#4A3AFF" stroke="url(#paint0_linear_1381_23006)" stroke-width="1.21351" stroke-linecap="round" stroke-linejoin="round"/>
<path opacity="0.5" d="M95.8775 40.2002C95.7563 40.0437 95.5665 39.9562 95.3688 39.9657C95.1711 39.9752 94.9905 40.0805 94.8848 40.2478L85.5202 55.0797C85.3994 55.2711 85.3951 55.5138 85.5092 55.7093L96.3568 74.3053C96.4655 74.4917 96.6651 74.6063 96.8809 74.6063H114C114.335 74.6063 114.607 74.3346 114.607 73.9995C114.607 73.0922 114.372 72.1845 113.902 71.3716L96.0086 40.3784C95.9949 40.3547 95.9796 40.3319 95.9628 40.3102L95.8775 40.2002Z" fill="#4A3AFF" stroke="url(#paint1_linear_1381_23006)" stroke-width="1.21351" stroke-linecap="round" stroke-linejoin="round"/>
<path opacity="0.5" d="M95.9159 107.747C96.0381 107.55 96.037 107.3 95.913 107.104L86.5469 92.2717C86.4357 92.0957 86.2421 91.9889 86.0339 91.9889H64.3386C64.1451 91.9889 63.9632 92.0812 63.8489 92.2374L52.1986 108.157C52.0105 108.414 52.0532 108.773 52.2963 108.979C53.2199 109.76 54.3956 110.249 55.6698 110.249H91.4577C93.2862 110.249 94.9619 109.288 95.9159 107.747Z" fill="#4A3AFF" stroke="url(#paint2_linear_1381_23006)" stroke-width="1.21351" stroke-linecap="round" stroke-linejoin="round"/>
<path opacity="0.31" d="M85.5092 92.2897C85.3961 92.4836 85.3992 92.724 85.5173 92.9148L94.7797 107.881C94.8886 108.057 95.0797 108.166 95.2866 108.169C95.4935 108.172 95.6877 108.069 95.8018 107.897L95.8016 107.897C95.8016 107.897 95.8041 107.893 95.8114 107.884C95.8221 107.871 95.8311 107.861 95.8527 107.836L95.8532 107.835C95.8873 107.796 95.9534 107.718 96.0102 107.618C96.011 107.616 96.0119 107.615 96.0127 107.613L113.902 76.6275C114.372 75.8145 114.607 74.9069 114.607 73.9995C114.607 73.6644 114.335 73.3928 114 73.3928H96.8809C96.6651 73.3928 96.4655 73.5074 96.3568 73.6938L85.5092 92.2897Z" fill="#4A3AFF" stroke="url(#paint3_linear_1381_23006)" stroke-width="1.21351" stroke-linecap="round" stroke-linejoin="round"/>
<path opacity="0.5" d="M64.8426 55.7401C64.9838 55.5282 64.9778 55.2507 64.8274 55.0452L53.1755 39.1255C53.0759 38.9895 52.9242 38.901 52.7568 38.8813C52.5894 38.8616 52.4213 38.9124 52.2929 39.0216C51.8603 39.3892 51.4357 39.8256 51.1171 40.3791L51.1169 40.379L51.1111 40.3897L34.0415 71.4697L34.0415 71.4698C33.6087 72.2583 33.3932 73.1292 33.3932 73.9995C33.3932 74.3346 33.6649 74.6063 34 74.6063H51.9404C52.1433 74.6063 52.3328 74.5049 52.4453 74.3361L64.8426 55.7401Z" fill="#4A3AFF" stroke="url(#paint4_linear_1381_23006)" stroke-width="1.21351" stroke-linecap="round" stroke-linejoin="round"/>
<path opacity="0.31" d="M34 73.3928C33.6649 73.3928 33.3932 73.6644 33.3932 73.9995C33.3932 74.8706 33.6106 75.741 34.041 76.5283L34.041 76.5283L34.0415 76.5293L51.1111 107.609L51.1109 107.609L51.1178 107.621C51.4371 108.173 51.859 108.61 52.2963 108.979C52.4249 109.087 52.5927 109.138 52.7596 109.118C52.9266 109.098 53.0777 109.009 53.177 108.873L64.8274 92.9538C64.9778 92.7483 64.9838 92.4708 64.8426 92.2589L52.4453 73.6629C52.3328 73.4941 52.1433 73.3928 51.9404 73.3928H34Z" fill="#4A3AFF" stroke="url(#paint5_linear_1381_23006)" stroke-width="1.21351" stroke-linecap="round" stroke-linejoin="round"/>
<path opacity="0.9" d="M86.0332 55.4038H64.3379L51.9406 73.9998L64.3379 92.5957H86.0332L96.8808 73.9998L86.0332 55.4038Z" fill="#4A3AFF"/>
</g>
<defs>
<linearGradient id="paint0_linear_1381_23006" x1="74.0434" y1="38.3574" x2="74.0434" y2="55.4037" gradientUnits="userSpaceOnUse">
<stop stop-color="white" stop-opacity="0.2"/>
<stop offset="1" stop-color="white" stop-opacity="0.12"/>
</linearGradient>
<linearGradient id="paint1_linear_1381_23006" x1="100.017" y1="40.5718" x2="100.017" y2="73.9995" gradientUnits="userSpaceOnUse">
<stop stop-color="white" stop-opacity="0.2"/>
<stop offset="1" stop-color="white" stop-opacity="0.12"/>
</linearGradient>
<linearGradient id="paint2_linear_1381_23006" x1="74.0441" y1="92.5957" x2="74.0441" y2="109.642" gradientUnits="userSpaceOnUse">
<stop stop-color="white" stop-opacity="0.2"/>
<stop offset="1" stop-color="white" stop-opacity="0.12"/>
</linearGradient>
<linearGradient id="paint3_linear_1381_23006" x1="100.017" y1="73.9995" x2="100.017" y2="107.562" gradientUnits="userSpaceOnUse">
<stop stop-color="white" stop-opacity="0.2"/>
<stop offset="1" stop-color="white" stop-opacity="0.12"/>
</linearGradient>
<linearGradient id="paint4_linear_1381_23006" x1="49.1689" y1="39.4839" x2="49.1689" y2="73.9995" gradientUnits="userSpaceOnUse">
<stop stop-color="white" stop-opacity="0.2"/>
<stop offset="1" stop-color="white" stop-opacity="0.12"/>
</linearGradient>
<linearGradient id="paint5_linear_1381_23006" x1="49.1689" y1="73.9995" x2="49.1689" y2="108.515" gradientUnits="userSpaceOnUse">
<stop stop-color="white" stop-opacity="0.2"/>
<stop offset="1" stop-color="white" stop-opacity="0.12"/>
</linearGradient>
</defs>
</svg>
